<mxfile host="app.diagrams.net" modified="2023-05-30T11:42:44.477Z" agent="Mozilla/5.0 (X11; Linux x86_64) AppleWebKit/537.36 (KHTML, like Gecko) Chrome/112.0.0.0 Safari/537.36" version="21.3.5" etag="yrMGl4XSS0dnKNT14F10" type="github">
  <diagram name="Page-1" id="dKr0Bq26hgxifIuOj7Wk">
    <mxGraphModel>
      <root>
        <mxCell id="0" />
        <mxCell id="1" parent="0" />
      </root>
    </mxGraphModel>
  </diagram>
</mxfile>
